<svg id="Layer_1" data-name="Layer 1" xmlns="http://www.w3.org/2000/svg" viewBox="0 0 175.03 98.93"><defs><style>.cls-1{fill:#ffe4da;}.cls-2,.cls-3,.cls-5{fill:#414151;}.cls-3{font-size:30.08px;font-family:JosefinSans-SemiBold, JosefinSans SemiBold;font-weight:600;}.cls-4{letter-spacing:-0.08em;}.cls-5{font-size:16.63px;font-family:JosefinSans-Light, JosefinSans Light;font-weight:300;}.cls-6{letter-spacing:-0.04em;}</style></defs><title>Untitled-1</title><path class="cls-1" d="M182,61.58a19.67,19.67,0,0,1-8.46,8.5c-8.36,4.45-18.14,3.34-27,1-9.26-2.47-19.25-6.64-28.82-3.19-8.32,3-14.13,10.38-20.55,16.07C90.43,90,82.75,95.32,74,98s-18.48,2.76-26.74-1.45A30.77,30.77,0,0,1,32.11,78.65c-2.86-9-2-18.85-5.38-27.78-3-8-9.14-15.11-9.3-24C17.27,18.17,23,10.45,30.25,6.22c7.89-4.58,17.53-5.79,26.5-5A71.22,71.22,0,0,1,83.41,9.42c4.14,2.17,8.09,4.72,12.35,6.66A30.85,30.85,0,0,0,109,19c8.81-.09,17.21-3.35,25.68-5.41a52.19,52.19,0,0,1,13.56-1.71,36.11,36.11,0,0,1,9.34.17,25.49,25.49,0,0,1,11.55,4.91,31.89,31.89,0,0,1,7.64,8.76,50.27,50.27,0,0,1,4.88,10.93,50.7,50.7,0,0,1,2.53,12.53A24.59,24.59,0,0,1,182,61.58Z" transform="translate(-12.21 -1)"/><polygon class="cls-2" points="175.03 77.96 0 77.96 0 30.82 22.26 30.82 22.26 32.53 1.71 32.53 1.71 76.25 173.32 76.25 173.32 32.53 169.73 32.53 169.73 30.82 175.03 30.82 175.03 77.96"/><text class="cls-3" transform="translate(25.15 45.18)"><tspan class="cls-4">F</tspan><tspan x="12.3" y="0">ASHION</tspan></text><text class="cls-5" transform="translate(22.11 65.17)"><tspan xml:space="preserve"> S</tspan><tspan class="cls-6" x="11.73" y="0"> </tspan><tspan x="14.57" y="0">T O R E</tspan></text><rect class="cls-2" x="112.06" y="63.16" width="52.23" height="0.64"/></svg>